<svg width="24" height="24" viewBox="0 0 24 24" fill="none" xmlns="http://www.w3.org/2000/svg">
<path d="M7 18.5C7 19.3438 7.65625 20 8.5 20H17.5C18.3125 20 19 19.3438 19 18.5V8H7V18.5ZM15.5 10.5C15.5 10.25 15.7188 10 16 10C16.25 10 16.5 10.25 16.5 10.5V17.5C16.5 17.7812 16.25 18 16 18C15.7188 18 15.5 17.7812 15.5 17.5V10.5ZM12.5 10.5C12.5 10.25 12.7188 10 13 10C13.25 10 13.5 10.25 13.5 10.5V17.5C13.5 17.7812 13.25 18 13 18C12.7188 18 12.5 17.7812 12.5 17.5V10.5ZM9.5 10.5C9.5 10.25 9.71875 10 10 10C10.25 10 10.5 10.25 10.5 10.5V17.5C10.5 17.7812 10.25 18 10 18C9.71875 18 9.5 17.7812 9.5 17.5V10.5ZM19.5 5H15.75L15.4375 4.4375C15.3125 4.1875 15.0625 4 14.7812 4H11.1875C10.9062 4 10.6562 4.1875 10.5312 4.4375L10.25 5H6.5C6.21875 5 6 5.25 6 5.5V6.5C6 6.78125 6.21875 7 6.5 7H19.5C19.75 7 20 6.78125 20 6.5V5.5C20 5.25 19.75 5 19.5 5Z" fill="#969696"/>
</svg>
