<svg width="66" height="66" viewBox="0 0 66 66" fill="none" xmlns="http://www.w3.org/2000/svg">
<circle cx="33" cy="33" r="32" stroke="#1447A6" stroke-width="2"/>
<path d="M46 40.6667C46 41.2855 45.7606 41.879 45.3343 42.3166C44.9081 42.7542 44.33 43 43.7273 43H23.2727C22.67 43 22.0919 42.7542 21.6657 42.3166C21.2394 41.879 21 41.2855 21 40.6667V27.8333C21 27.2145 21.2394 26.621 21.6657 26.1834C22.0919 25.7458 22.67 25.5 23.2727 25.5H27.8182L30.0909 22H36.9091L39.1818 25.5H43.7273C44.33 25.5 44.9081 25.7458 45.3343 26.1834C45.7606 26.621 46 27.2145 46 27.8333V40.6667Z" stroke="#1447A6" stroke-width="2" stroke-linecap="round" stroke-linejoin="round"/>
<circle cx="33.5" cy="33.5" r="4.5" stroke="#1447A6" stroke-width="1.5"/>
</svg>
