<svg width="28" height="28" viewBox="0 0 28 28" fill="none" xmlns="http://www.w3.org/2000/svg">
<circle cx="14" cy="14" r="14" fill="#1B1B1B"/>
<path d="M16.5615 5.87573C15.208 5.5088 14.7678 5.47855 13.9217 5.51902C13.0266 5.57445 12.5519 5.63866 11.924 6.01842C11.8069 6.0283 11.7399 5.98838 11.6149 5.80438C11.4862 5.33594 11.5664 5.17427 12.0905 5.13848C11.916 5.00863 11.7929 4.95526 11.3295 5.04335C10.6481 5.29279 10.6063 5.64134 10.5209 6.25624C10.1863 6.14263 9.97947 6.09944 9.3318 6.32759C9.74305 6.43261 9.89659 6.5651 9.95013 7.01727C9.41472 7.36004 9.15367 7.58384 8.78481 8.06368C8.12038 9.22599 8.04004 9.82348 8 10.87C8.03337 11.9142 8.17928 12.2661 8.42808 12.9152C8.62448 13.4128 9.11674 14.0233 10.8301 15.8404C10.9391 15.8674 10.9634 15.9345 10.9728 16.102C10.9649 16.334 10.9783 16.4177 11.0441 16.5063C11.152 16.445 11.2524 16.4518 11.4722 16.5063C11.5199 16.6599 11.5785 16.6995 11.7338 16.6966L11.71 17.8857C11.3147 18.0512 11.0738 18.139 10.9965 18.3851C10.5569 19.5002 10.3888 20.153 10.2117 21.3579C10.1959 21.5627 10.2037 21.726 10.2117 22H16.3475C16.3203 21.6521 16.2817 21.1711 16.2999 21.3817C16.3028 21.2358 16.1964 21.0161 15.0157 19.3602C14.7513 18.9139 14.6404 18.7056 14.6352 18.5516C14.6584 18.0791 14.6717 17.8148 14.7541 17.5052C14.8072 17.2108 15.206 17.0533 15.2297 17.0533C15.2535 17.0533 15.2846 16.9236 15.8481 17.1722C16.1881 17.384 17.6398 17.6798 18.0122 17.6241C18.4408 17.5262 18.5588 17.1528 18.7495 16.435L18.7524 16.4316C18.9489 16.2006 19.0605 16.0695 19.0111 15.9593L19.011 15.959C19.0062 15.9305 19.0036 15.9147 18.9397 15.8404C18.9431 15.7434 18.9725 15.7153 19.0587 15.6977C19.1847 15.6623 19.2124 15.5366 19.2251 15.2221C19.4404 15.1759 19.5511 15.0993 19.7008 14.7227C19.7859 14.4936 19.7596 14.3784 19.7008 14.1757C19.5943 13.9806 19.5182 13.8683 19.344 13.6525C19.1896 13.3844 19.1083 13.2095 18.9873 12.7963C19.0232 11.985 19.0932 11.5806 19.4154 11.0602C19.5039 10.9911 19.4234 10.0451 19.3678 9.56195C19.5524 9.64097 19.6223 9.71092 19.7008 9.87112L19.7959 9.72843L19.891 9.77599C20.0367 9.86051 20.08 9.91345 20.1051 10.0138V9.58574L20.1288 9.6333C20.2154 9.22962 20.2002 8.89606 20.1526 8.72958C20.1051 8.56311 20.0397 8.60702 19.9148 8.32528L19.9624 8.27772C19.9209 8.30973 19.8622 8.26732 19.7246 8.13503C19.2196 7.69569 19.0938 7.58896 18.8692 7.39844L18.8684 7.39778C17.7729 6.48179 17.2498 6.11851 16.5615 5.87573Z" fill="white"/>
</svg>
