<svg width="25" height="22" viewBox="0 0 25 22" fill="none" xmlns="http://www.w3.org/2000/svg">
<path d="M14.1665 0.5C8.36817 0.5 3.6665 5.20167 3.6665 11H0.166504L4.70484 15.5383L4.7865 15.7017L9.49984 11H5.99984C5.99984 6.485 9.6515 2.83333 14.1665 2.83333C18.6815 2.83333 22.3332 6.485 22.3332 11C22.3332 15.515 18.6815 19.1667 14.1665 19.1667C11.9148 19.1667 9.87317 18.245 8.40317 16.7633L6.7465 18.42C8.64817 20.3217 11.2615 21.5 14.1665 21.5C19.9648 21.5 24.6665 16.7983 24.6665 11C24.6665 5.20167 19.9648 0.5 14.1665 0.5ZM12.9998 6.33333V12.1667L17.9932 15.13L18.8332 13.7183L14.7498 11.2917V6.33333H12.9998Z" fill="#4B4B4B"/>
</svg>
