<svg width="28" height="28" viewBox="0 0 28 28" fill="none" xmlns="http://www.w3.org/2000/svg">
<circle cx="14" cy="14" r="14" fill="#1B1B1B"/>
<path d="M19.5891 12.7422C19.7156 13.5362 18.6923 13.3451 18.9719 13.877C19.0795 14.0153 19.0746 14.0745 18.9593 14.2011C18.7905 14.4292 18.5364 14.2653 18.7706 14.6033C18.9191 14.8703 18.4787 14.9469 18.5011 15.3834C18.4822 16.0012 18.075 16.4239 17.4505 16.3356C16.7598 16.348 15.7644 15.7249 15.3601 16.5994C15.2524 16.9133 15.1734 17.2378 15.035 17.5403C15.0197 17.5721 15.0138 17.6077 15.0179 17.6429C15.0221 17.678 15.0362 17.7112 15.0584 17.7385C16.0199 18.9088 16.9014 20.3663 17.3634 21.8H10.7787C10.5823 20.4191 11.3149 19.0804 11.9422 17.8842C12.088 17.6105 12.1722 17.3275 12.1484 17.0087C12.1247 16.6842 12.1544 16.6668 12.4721 16.642C12.5752 16.6282 12.6792 16.6221 12.7831 16.6239C12.8611 16.6292 12.9027 16.5955 12.9202 16.5154C12.9422 16.4161 12.9499 16.3143 12.9726 16.2154C12.9953 16.1165 13.01 16.0161 13.0285 15.9115C12.8887 15.9239 12.7898 16.0136 12.679 16.0757C12.6368 16.104 12.5891 16.1229 12.5392 16.131C12.5259 16.134 12.512 16.1331 12.4991 16.1285C12.4863 16.1238 12.475 16.1156 12.4665 16.1047C12.459 16.0926 12.4558 16.0783 12.4571 16.0641C12.4585 16.0498 12.4645 16.0364 12.4742 16.026C12.4925 16.0003 12.5145 15.9776 12.5395 15.9586C12.6695 15.8554 12.7853 15.7352 12.8842 15.6012C12.9607 15.4976 12.9617 15.4526 12.889 15.348C12.6923 15.0617 12.4506 14.8102 12.1736 14.6033C11.8713 14.3792 11.5504 14.1838 11.245 13.965C10.9633 13.7635 10.7011 13.5362 10.5243 13.2298C10.3667 12.956 10.2261 12.6727 10.1398 12.3652C10.1049 12.2386 10.0986 12.2408 9.98499 12.2918C9.90704 12.3264 9.82295 12.3444 9.73789 12.3447C9.51875 12.3482 9.3003 12.3574 9.08116 12.3759C6.24246 11.9968 6.45077 6.71468 8.8393 6.62638C8.8393 6.62638 9.64107 6.52424 10.1461 6.80369C10.2569 6.86468 10.3114 6.78702 10.3674 6.71858C11.4211 5.52421 13.1554 4.61211 14.6492 5.16604C14.6628 5.171 15.1636 5.36711 15.3765 5.47562C15.8309 5.59939 16.3551 5.393 16.8095 5.53591C17.0765 5.69372 17.3669 5.80684 17.6287 5.97387C17.9179 6.16181 18.1906 6.37466 18.4438 6.61006C18.651 6.79979 18.7866 7.05334 18.9271 7.2952C19.1401 7.65088 19.2889 8.04224 19.3665 8.45091C19.3997 8.6378 19.3871 8.8261 19.3735 9.01299C19.3679 9.09101 19.3623 9.21903 19.3623 9.29669C19.3623 9.58535 19.3273 9.87295 19.3336 10.162C19.3336 10.7705 18.8737 10.5095 19.0047 10.0616C18.9782 10.1797 18.9666 10.3308 18.8408 10.4329C18.8059 10.5783 18.9771 10.7166 18.8586 10.8975C18.7538 11.2198 18.701 11.5443 18.9114 11.862C19.0407 12.0663 19.168 12.2982 19.3738 12.434C19.4993 12.5025 19.5748 12.5982 19.5891 12.7422Z" fill="#F5FBFF"/>
</svg>
