<svg width="28" height="28" viewBox="0 0 28 28" fill="none" xmlns="http://www.w3.org/2000/svg">
<circle cx="14" cy="14" r="14" fill="#1B1B1B"/>
<path d="M10.6119 6.58669C10.5657 6.80202 10.4121 6.97839 10.378 7.23921C10.8458 7.0339 11.284 6.83805 11.725 6.64845C12.4788 6.33354 13.212 5.9693 13.9199 5.558C14.4382 5.24985 15.007 5.16676 15.5997 5.197C16.0741 5.22126 16.5494 5.22788 17.0242 5.24415C17.1144 5.23132 17.2061 5.24953 17.2851 5.29589C17.2225 5.37475 17.1231 5.37594 17.0487 5.42557C16.9317 5.50405 16.8932 5.58787 17.0511 5.65367C17.6702 5.91101 18.2604 6.25354 18.9456 6.31796C19.2094 6.34268 19.3522 6.27072 19.4779 6.03076C19.6105 5.77756 19.6095 5.49615 19.6522 5.22375C19.6661 5.13533 19.6494 5.0086 19.7631 5.00033C19.8664 4.99288 19.8929 5.11484 19.9225 5.19967C20.0159 5.46797 20.098 5.73997 20.1689 6.01569C20.2082 6.15725 20.2103 6.30688 20.1749 6.44952C20.1396 6.59215 20.068 6.72274 19.9675 6.82812C19.7504 7.07826 19.4595 7.24956 19.1389 7.31623C18.5927 7.43395 18.0617 7.61591 17.5565 7.85847C17.5026 7.88521 17.4185 7.88337 17.4146 7.98539C17.5341 8.00891 17.6314 7.86591 17.7528 7.93668C17.7516 7.95506 17.7553 7.98052 17.7493 7.98327C17.4556 8.11552 17.4635 8.34271 17.5391 8.61144C17.6419 8.93224 17.6374 9.27884 17.5263 9.59675C17.2646 10.3424 17.7574 11.3318 18.4743 11.6164C18.6521 11.6807 18.8216 11.7667 18.9793 11.8725C19.1171 11.9707 19.1369 12.0781 19.0422 12.2241C18.8096 12.5966 18.4811 12.8965 18.0928 13.091C17.7426 13.2631 17.6992 13.338 17.7345 13.7381C17.7495 13.9082 17.6601 13.955 17.524 13.9696C17.4799 13.9743 17.4261 13.9696 17.4084 14.0219C17.3876 14.0837 17.4483 14.0954 17.4825 14.1176C17.5688 14.1749 17.5923 14.2499 17.5269 14.3311C17.1183 14.8396 17.0385 15.4589 16.9454 16.078C16.8753 16.5439 16.7617 16.6037 16.2989 16.5467C15.7747 16.4866 15.2552 16.3902 14.7439 16.2581C14.6722 16.2319 14.5935 16.2336 14.5229 16.2629C14.4524 16.2921 14.3948 16.3469 14.3611 16.4167C14.2168 16.6696 14.0896 16.9324 13.9805 17.2031C13.9588 17.2434 13.9516 17.2902 13.9601 17.3354C13.9687 17.3806 13.9924 17.4213 14.0271 17.4506C14.0748 17.4951 14.1132 17.549 14.1402 17.609C14.1672 17.6689 14.1821 17.7338 14.1842 17.7998C14.1842 18.0188 14.199 18.2312 14.3379 18.4138C14.3528 18.4334 14.3606 18.485 14.3494 18.4945C14.2831 18.5509 14.2484 18.4577 14.1931 18.4524C14.1737 18.4323 14.1524 18.409 14.1279 18.4406C14.1232 18.4466 14.1439 18.4732 14.1529 18.4902C14.5547 18.8307 14.7364 19.2834 14.8493 19.7945C14.9981 20.4672 15.1971 21.1285 15.3746 21.7946L9.18243 21.7999C9.11442 21.7999 9.04489 21.8044 9 21.7356C9.12648 21.0371 9.4612 20.4409 9.85547 19.8694C10.4014 19.0782 10.789 18.2012 11.1552 17.3134C11.2137 17.1716 11.1896 17.0857 11.0468 17.0209C10.9107 16.9591 10.8971 16.8463 10.9588 16.7118C11.0865 16.4498 11.2297 16.196 11.3873 15.9516C11.4871 15.7882 11.6437 15.8086 11.7928 15.8358C11.8918 15.8542 11.9611 15.862 12.0062 15.7431C12.2207 15.1761 12.4609 14.6188 12.5781 14.0179C12.6013 13.889 12.5824 13.7559 12.5242 13.6391C11.9887 12.4285 11.3008 11.3236 10.3864 10.3713C10.0006 9.95796 9.6746 9.49048 9.41811 8.98301C9.39508 8.93908 9.36414 8.89938 9.32933 8.84516C9.24495 8.98163 9.31718 9.09881 9.32816 9.23667C9.29627 9.22187 9.26855 9.1991 9.24756 9.17045C9.22657 9.14181 9.21299 9.10823 9.20807 9.0728C9.14078 8.80986 9.2418 8.54895 9.21149 8.27774C9.17865 7.98484 9.42045 7.80332 9.64066 7.64415C9.74379 7.55339 9.82422 7.4388 9.87527 7.30989C10.0329 6.99195 10.2839 6.73227 10.593 6.56712C10.5991 6.57309 10.6055 6.58007 10.6119 6.58669ZM14.0697 18.3396C14.0574 18.3509 14.0388 18.3631 14.0405 18.3672C14.0488 18.3844 14.0588 18.4006 14.0704 18.4156C14.08 18.4079 14.0988 18.3972 14.0974 18.3933C14.0898 18.3746 14.0805 18.3566 14.0697 18.3396Z" fill="white"/>
</svg>
