<svg width="22" height="23" viewBox="0 0 22 23" fill="none" xmlns="http://www.w3.org/2000/svg">
<path d="M9.94574 3.60852H2.98794C2.46071 3.60852 1.95507 3.81796 1.58225 4.19077C1.20944 4.56359 1 5.06923 1 5.59646V19.512C1 20.0393 1.20944 20.5449 1.58225 20.9177C1.95507 21.2905 2.46071 21.5 2.98794 21.5H16.9035C17.4308 21.5 17.9364 21.2905 18.3092 20.9177C18.682 20.5449 18.8915 20.0393 18.8915 19.512V12.5542" stroke="#1447A6" stroke-width="2" stroke-linecap="round" stroke-linejoin="round"/>
<path d="M17.4006 2.11757C17.796 1.72215 18.3323 1.5 18.8915 1.5C19.4507 1.5 19.987 1.72215 20.3825 2.11757C20.7779 2.513 21 3.04931 21 3.60853C21 4.16774 20.7779 4.70406 20.3825 5.09948L10.9397 14.5422L6.96387 15.5362L7.95784 11.5603L17.4006 2.11757Z" stroke="#1447A6" stroke-width="2" stroke-linecap="round" stroke-linejoin="round"/>
</svg>
