<svg width="139" height="139" viewBox="0 0 139 139" fill="none" xmlns="http://www.w3.org/2000/svg">
<g clip-path="url(#clip0)">
<path opacity="0.5" d="M116.219 85.6755L113.974 79.7736L94.8566 79.7736L92.6113 85.8038C91.7346 88.156 90.9862 89.7491 90.3661 90.583C89.7459 91.3956 88.7302 91.8019 87.3189 91.8019C86.1214 91.8019 85.0629 91.3635 84.1434 90.4868C83.2239 89.6101 82.7642 88.6157 82.7642 87.5038C82.7642 86.8623 82.8711 86.1994 83.0849 85.5151C83.2988 84.8308 83.6516 83.8792 84.1434 82.6604L96.1717 52.1245C96.5139 51.2478 96.9201 50.2 97.3906 48.9811C97.8824 47.7409 98.3956 46.7144 98.9302 45.9019C99.4862 45.0893 100.203 44.4371 101.079 43.9453C101.977 43.432 103.079 43.1754 104.383 43.1754C105.709 43.1754 106.81 43.432 107.687 43.9453C108.585 44.4371 109.301 45.0786 109.836 45.8698C110.392 46.661 110.852 47.5163 111.215 48.4358C111.6 49.3339 112.081 50.5421 112.659 52.0604L124.943 82.4038C125.906 84.7132 126.387 86.3918 126.387 87.4396C126.387 88.5302 125.927 89.5352 125.008 90.4547C124.109 91.3528 123.019 91.8019 121.736 91.8019C120.987 91.8019 120.346 91.6629 119.811 91.3849C119.277 91.1283 118.828 90.7755 118.464 90.3264C118.101 89.856 117.705 89.1503 117.277 88.2094C116.871 87.2472 116.518 86.4025 116.219 85.6755ZM97.3585 72.6207L111.408 72.6207L104.319 53.2151L97.3585 72.6207Z" fill="#D8D8D8"/>
<path fill-rule="evenodd" clip-rule="evenodd" d="M70.604 23.3L63.3692 2.15199C62.9693 0.984443 61.8716 0.199946 60.6375 0.199946L14.4374 0.19995C6.46385 0.199951 5.65088e-07 6.6638 1.26216e-06 14.6374L8.83516e-06 101.262C9.53223e-06 109.236 6.46386 115.7 14.4374 115.7L67.2985 115.7L75.2172 136.816C75.3734 137.292 75.6556 137.733 76.0601 138.087C76.5797 138.541 77.2447 138.794 77.9343 138.8C77.9436 138.8 77.9529 138.8 77.9622 138.8C77.9746 138.8 77.987 138.8 77.9993 138.8L124.163 138.8C132.137 138.8 138.601 132.336 138.601 124.363L138.601 37.7377C138.601 29.7639 132.137 23.3 124.163 23.3L70.604 23.3ZM100.942 111.988C100.931 111.951 100.919 111.914 100.906 111.877L72.5796 29.075L124.163 29.075C128.947 29.075 132.826 32.9533 132.826 37.7377L132.826 124.363C132.826 129.147 128.947 133.025 124.163 133.025L124.163 133.025L84.3246 133.025L99.2467 115.975L101.446 113.461L100.942 111.988Z" fill="#D8D8D8"/>
<path fill-rule="evenodd" clip-rule="evenodd" d="M39.9606 67.6158C40.8318 67.6861 41.7038 67.7564 42.5799 67.7418L43.5713 67.7418C45.6794 67.7388 47.6205 67.2144 49.3403 66.0257C50.3902 65.3005 51.1666 64.3615 51.3806 63.1188C51.7729 60.8423 50.3787 59.0132 47.9586 58.5497C47.4634 58.4548 46.9623 58.4015 46.4606 58.3483C45.627 58.2597 44.7918 58.1711 43.9794 57.8904C43.4227 57.6983 42.8598 57.5219 42.2966 57.3454C41.4101 57.0676 40.523 56.7896 39.6589 56.45C39.6508 56.4468 39.6428 56.4437 39.6347 56.4405C39.4583 56.3718 39.2991 56.3099 39.3051 56.0404C39.3583 53.628 39.2561 51.2196 39.0901 48.8132C38.9653 47.0008 38.8379 45.1891 38.7105 43.377C38.677 42.9009 38.6435 42.4247 38.6101 41.9485C38.584 41.579 38.5554 41.2094 38.5267 40.8397C38.459 39.9665 38.3913 39.093 38.3575 38.2186C38.32 37.2656 39.0557 36.5623 40.0659 36.4884C41.1502 36.4095 41.7064 36.8161 41.8932 37.814C42.3017 39.9961 42.758 42.1696 43.2143 44.3432C43.7526 46.9068 44.2909 49.4706 44.7506 52.0487C44.809 52.3783 44.929 52.692 45.1305 52.9697C45.4571 53.4182 45.9038 53.4582 46.3191 53.0776C46.6896 52.739 46.843 52.2934 46.9202 51.8319C47.0709 50.9246 47.2157 50.0163 47.3605 49.1081C47.5458 47.9465 47.731 46.7849 47.9283 45.6256C48.1793 44.1507 48.4381 42.6768 48.6969 41.2029C48.9558 39.7289 49.2146 38.255 49.4656 36.7801C49.5887 36.0579 49.956 35.5225 50.5853 35.1199C51.2 34.7263 51.7896 34.7902 52.3866 35.1369C52.9564 35.4685 53.3488 35.904 53.2976 36.5883C53.2758 36.8873 53.2442 37.1857 53.2126 37.484C53.2004 37.5994 53.1882 37.7147 53.1766 37.83C52.7525 42.0768 52.4624 46.3335 52.1722 50.5903C52.1425 51.0265 52.1128 51.4627 52.0829 51.8989C52.0805 51.9342 52.078 51.9696 52.0755 52.0051C52.0477 52.4002 52.0196 52.8002 52.1048 53.1935C52.2436 53.8328 52.612 53.9457 53.1275 53.5071C53.4291 53.2494 53.6472 52.9288 53.8403 52.5911C54.9045 50.7274 55.9117 48.8351 56.9189 46.9427C57.488 45.8733 58.0572 44.8039 58.6367 43.7396C58.7294 43.5697 58.8219 43.3997 58.9145 43.2297C59.44 42.2646 59.9653 41.2999 60.511 40.3453C60.8929 39.676 61.445 39.3493 62.02 39.5092C63.2055 39.8378 63.8045 40.1345 63.4727 41.6109C63.2829 42.4551 62.9018 43.2336 62.5216 44.0101C62.4083 44.2415 62.295 44.4728 62.187 44.7056C61.7812 45.579 61.371 46.4506 60.9609 47.3222C59.8529 49.6765 58.7449 52.031 57.7235 54.4222C57.7163 54.4389 57.7092 54.4557 57.702 54.4725C57.4334 55.1003 57.1625 55.7333 57.1391 56.425C57.1161 57.1272 57.4981 57.399 58.1984 57.2142C58.8078 57.0533 59.2889 56.7107 59.6865 56.2542C60.4178 55.4148 61.1477 54.5742 61.8775 53.7336C62.7798 52.6945 63.6821 51.6553 64.5872 50.6182L64.6211 50.5795C65.2787 49.8262 65.9369 49.0724 66.6223 48.3437C67.4989 47.4127 68.8326 47.6564 69.2417 48.7932C69.4022 49.2399 69.2005 49.5975 68.9975 49.9574C68.9867 49.9766 68.9759 49.9957 68.9651 50.0149C67.3747 52.8468 65.5025 55.506 63.5708 58.1312C62.3404 59.8034 61.1517 61.5055 60.3951 63.4385C60.0279 64.3769 59.8753 65.359 59.7227 66.3409C59.648 66.8213 59.5734 67.3016 59.4736 67.7768C58.9393 70.3221 58.3027 72.8374 57.2518 75.2368C56.4931 76.9679 55.3483 78.4004 53.5523 79.2745C53.091 79.4982 52.6266 79.6271 52.1006 79.5352C50.6198 79.2774 49.1253 79.2874 47.633 79.3793C47.2677 79.4023 47.0653 79.3184 46.8566 79.0497C46.0596 78.0208 45.2565 76.9963 44.4533 75.9719C43.8904 75.2539 43.3275 74.5359 42.7667 73.8163C41.3412 71.9873 40.02 70.0983 39.0713 67.9896C38.9211 67.6549 38.8939 67.5331 39.3552 67.568C39.557 67.5832 39.7588 67.5995 39.9606 67.6158ZM12.5508 68.8807C12.0634 67.3203 11.5771 65.758 11.551 63.934C11.5569 63.8773 11.5617 63.809 11.5671 63.7322C11.583 63.5068 11.6041 63.2083 11.671 62.9171C11.9956 61.3757 12.388 59.8683 14.2174 59.291C14.2624 59.2771 14.3048 59.2545 14.3472 59.232C14.3658 59.2221 14.3844 59.2122 14.4032 59.2031C16.5217 58.1702 18.3062 56.7257 19.9165 55.0725C20.3965 54.58 20.9642 54.2484 21.6509 54.1275C23.1704 53.8608 24.7159 53.7909 26.1999 54.1914C29.4528 55.0695 32.5053 56.446 35.4973 57.9244C39.0633 59.6865 42.7273 61.125 46.766 61.5036C46.7905 61.5059 46.815 61.5081 46.8396 61.5103C46.9533 61.5204 47.0677 61.5305 47.1793 61.5535L47.1852 61.5548C47.5956 61.6393 48.0191 61.7265 48.1728 62.1709C48.3262 62.6154 48.0664 62.944 47.7648 63.2327C47.053 63.914 46.1514 64.2606 45.1954 64.4694C44.1387 64.6997 43.067 64.6593 41.9962 64.6189C41.7991 64.6114 41.602 64.604 41.4051 64.5983C40.8804 64.583 40.3582 64.5353 39.8362 64.4877C39.1308 64.4233 38.4256 64.359 37.7149 64.3745C36.2477 64.4055 35.4357 64.9838 35.2698 66.1206C35.2093 66.5392 35.2907 66.9527 35.4076 67.3513C35.993 69.3372 36.9604 71.1602 38.1428 72.8674C40.385 76.1061 42.8658 79.1775 45.3466 82.2488C45.7352 82.7299 46.1237 83.211 46.5114 83.6928C46.7738 84.0188 47.0389 84.3431 47.304 84.6675C47.8528 85.3389 48.4017 86.0105 48.9273 86.6975C49.5535 87.5166 49.3437 88.4536 48.4431 89.1499C47.6896 89.7323 46.9737 89.6394 46.2056 88.8732C45.664 88.3328 45.1151 87.7993 44.562 87.2709C44.3112 87.0313 44.0605 86.7916 43.8097 86.552C41.1461 84.0071 38.4822 81.4619 35.8793 78.8599C35.6038 78.5842 35.3251 78.3065 34.9745 78.1137C34.2596 77.7222 33.6961 78.0288 33.6637 78.824C33.6439 79.3075 33.8328 79.738 34.0405 80.1585C36.2758 84.6977 38.4507 89.2638 40.5567 93.8598C40.8009 94.3913 40.8468 94.9087 40.6777 95.4601C40.4429 96.2303 39.9712 96.6339 39.1802 96.7138C38.315 96.8007 37.7191 96.503 37.3288 95.7968C34.8138 91.2386 32.1317 86.7704 29.409 82.3242C29.2065 81.9936 28.9999 81.6629 28.6868 81.4152C28.3393 81.1405 28.0325 81.2104 27.8634 81.609C27.7111 81.9686 27.6714 82.3512 27.7131 82.7368C27.7695 83.255 27.8255 83.7732 27.8814 84.2914C28.0646 85.9887 28.2477 87.6858 28.4468 89.3816C28.5213 90.0161 28.599 90.6502 28.6767 91.2843C28.8964 93.0763 29.1162 94.8682 29.2618 96.6678C29.3349 97.5688 28.9394 98.1093 28.1504 98.2901C27.112 98.5278 26.5673 98.2811 26.1488 97.3741C26.058 97.1773 25.9735 96.9735 25.9213 96.7657C25.5745 95.3969 25.3435 94.0083 25.1126 92.6197C25.0162 92.0403 24.9199 91.4609 24.8151 90.883C24.7023 90.2609 24.5926 89.6383 24.483 89.0156C24.1139 86.92 23.7449 84.8245 23.2549 82.7498C23.1443 82.2793 22.9951 81.8158 22.706 81.4122C22.3637 80.9347 21.9076 80.9017 21.486 81.3203C21.1667 81.637 20.9517 82.0166 20.8453 82.4451C20.7241 82.9319 20.6739 83.4281 20.6237 83.9243C20.6103 84.0563 20.597 84.1883 20.5823 84.3201C20.3172 86.7005 20.0521 89.081 19.7797 91.4604C19.7077 92.0887 19.6284 92.7161 19.5209 93.3394C19.3853 94.1245 18.8249 94.591 18.0735 94.5861C17.273 94.5801 16.7523 94.1245 16.6531 93.2934C16.4288 91.4095 16.3776 89.5155 16.338 87.6215C16.3157 86.5771 16.3505 85.5326 16.3854 84.488C16.4386 82.8911 16.4919 81.294 16.3411 79.696C16.2107 78.3135 15.9758 76.965 15.356 75.6923C14.2758 73.4767 13.2834 71.2261 12.5508 68.8807Z" fill="white"/>
</g>
<defs>
<clipPath id="clip0">
<rect width="138.6" height="138.6" fill="white" transform="translate(0 0.199951)"/>
</clipPath>
</defs>
</svg>
