<svg width="66" height="66" viewBox="0 0 66 66" fill="none" xmlns="http://www.w3.org/2000/svg">
<circle cx="33" cy="33" r="33" fill="#004DA8"/>
<path fill-rule="evenodd" clip-rule="evenodd" d="M32.764 33.0484C33.2065 33.0838 33.6494 33.1194 34.0945 33.112L34.598 33.112C35.6688 33.1105 36.6548 32.8456 37.5283 32.2453C38.0616 31.879 38.456 31.4047 38.5646 30.7771C38.764 29.6274 38.0558 28.7036 36.8265 28.4695C36.575 28.4216 36.3204 28.3947 36.0656 28.3678C35.6422 28.3231 35.218 28.2783 34.8053 28.1365C34.5226 28.0395 34.2366 27.9504 33.9505 27.8613C33.5003 27.721 33.0497 27.5806 32.6108 27.409C32.6067 27.4074 32.6026 27.4059 32.5985 27.4043C32.5089 27.3696 32.428 27.3383 32.4311 27.2022C32.4581 25.9838 32.4062 24.7674 32.3219 23.5521C32.2585 22.6365 32.1937 21.7212 32.129 20.8058C32.112 20.5656 32.095 20.3253 32.078 20.0851C32.0648 19.8984 32.0502 19.7118 32.0357 19.5251C32.0013 19.0841 31.9669 18.6429 31.9498 18.2013C31.9307 17.7199 32.3044 17.3648 32.8175 17.3274C33.3683 17.2876 33.6508 17.4929 33.7457 17.9969C33.9531 19.099 34.1849 20.1967 34.4167 21.2945C34.6901 22.5893 34.9635 23.8841 35.197 25.1862C35.2267 25.3527 35.2877 25.5111 35.39 25.6513C35.5559 25.8779 35.7828 25.898 35.9937 25.7058C36.1819 25.5348 36.2598 25.3098 36.2991 25.0767C36.3756 24.6185 36.4492 24.1597 36.5227 23.701C36.6168 23.1143 36.7109 22.5277 36.8111 21.9422C36.9386 21.1973 37.0701 20.4529 37.2015 19.7085C37.333 18.9641 37.4645 18.2197 37.5919 17.4748C37.6545 17.11 37.8411 16.8396 38.1607 16.6363C38.4729 16.4375 38.7724 16.4698 39.0756 16.6448C39.3651 16.8123 39.5644 17.0323 39.5384 17.3779C39.5273 17.5289 39.5113 17.6796 39.4952 17.8303C39.489 17.8885 39.4828 17.9468 39.4769 18.005C39.2615 20.1499 39.1141 22.2997 38.9668 24.4497C38.9517 24.67 38.9366 24.8902 38.9214 25.1105C38.9202 25.1284 38.9189 25.1462 38.9176 25.1641C38.9035 25.3637 38.8892 25.5657 38.9325 25.7643C39.003 26.0872 39.1901 26.1442 39.452 25.9228C39.6052 25.7926 39.716 25.6306 39.814 25.4601C40.3546 24.5188 40.8662 23.5631 41.3778 22.6074C41.6668 22.0673 41.9559 21.5272 42.2503 20.9897C42.2974 20.9038 42.3444 20.818 42.3914 20.7321C42.6583 20.2447 42.9251 19.7575 43.2023 19.2754C43.3963 18.9373 43.6767 18.7724 43.9688 18.8531C44.571 19.0191 44.8753 19.1689 44.7067 19.9146C44.6103 20.3409 44.4167 20.7341 44.2236 21.1263C44.166 21.2432 44.1085 21.36 44.0536 21.4775C43.8475 21.9186 43.6392 22.3588 43.4308 22.799C42.8681 23.9881 42.3053 25.1772 41.7865 26.3849C41.7828 26.3934 41.7792 26.4018 41.7755 26.4103C41.6391 26.7274 41.5015 27.0471 41.4896 27.3964C41.478 27.7511 41.672 27.8883 42.0277 27.795C42.3372 27.7138 42.5816 27.5407 42.7836 27.3102C43.155 26.8863 43.5257 26.4617 43.8964 26.0372C44.3547 25.5124 44.813 24.9875 45.2728 24.4637L45.29 24.4441C45.6241 24.0637 45.9584 23.683 46.3065 23.315C46.7517 22.8447 47.4292 22.9679 47.637 23.542C47.7185 23.7676 47.6161 23.9482 47.5129 24.13C47.5075 24.1396 47.502 24.1493 47.4965 24.159C46.6887 25.5893 45.7377 26.9323 44.7565 28.2581C44.1316 29.1027 43.5278 29.9624 43.1435 30.9386C42.957 31.4125 42.8794 31.9085 42.8019 32.4045C42.764 32.6471 42.7261 32.8897 42.6754 33.1297C42.404 34.4152 42.0807 35.6855 41.5469 36.8973C41.1615 37.7716 40.58 38.4951 39.6677 38.9366C39.4334 39.0496 39.1976 39.1146 38.9304 39.0682C38.1782 38.9381 37.4191 38.9431 36.6611 38.9895C36.4756 39.0011 36.3728 38.9588 36.2667 38.823C35.8619 38.3034 35.454 37.786 35.046 37.2686C34.7601 36.906 34.4742 36.5433 34.1894 36.1799C33.4653 35.2562 32.7942 34.3021 32.3123 33.2371C32.236 33.0681 32.2222 33.0066 32.4565 33.0242C32.559 33.0319 32.6615 33.0401 32.764 33.0484ZM18.8408 33.687C18.5933 32.8989 18.3462 32.1099 18.333 31.1886C18.336 31.16 18.3384 31.1255 18.3412 31.0867C18.3493 30.9729 18.36 30.8221 18.394 30.675C18.5588 29.8966 18.7581 29.1353 19.6874 28.8437C19.7102 28.8367 19.7318 28.8253 19.7533 28.8139C19.7627 28.8089 19.7722 28.8039 19.7817 28.7993C20.8578 28.2776 21.7642 27.5481 22.5821 26.7131C22.826 26.4644 23.1143 26.2969 23.4631 26.2359C24.2349 26.1012 25.02 26.0658 25.7737 26.2682C27.426 26.7116 28.9765 27.4068 30.4962 28.1535C32.3075 29.0435 34.1686 29.77 36.22 29.9612C36.2325 29.9623 36.2449 29.9634 36.2574 29.9645C36.3152 29.9696 36.3733 29.9748 36.4299 29.9864L36.433 29.987C36.6414 30.0297 36.8565 30.0737 36.9346 30.2982C37.0125 30.5227 36.8805 30.6887 36.7273 30.8345C36.3658 31.1785 35.9078 31.3536 35.4223 31.4591C34.8855 31.5754 34.3412 31.5549 33.7973 31.5345C33.6971 31.5308 33.597 31.527 33.497 31.5241C33.2305 31.5164 32.9653 31.4923 32.7001 31.4683C32.3418 31.4358 31.9836 31.4033 31.6226 31.4111C30.8774 31.4268 30.465 31.7189 30.3807 32.293C30.3499 32.5044 30.3913 32.7133 30.4506 32.9146C30.748 33.9175 31.2394 34.8382 31.84 35.7005C32.9788 37.3361 34.2389 38.8874 35.499 40.4386C35.6964 40.6815 35.8938 40.9245 36.0907 41.1678C36.224 41.3325 36.3586 41.4963 36.4933 41.6601C36.772 41.9992 37.0508 42.3384 37.3178 42.6854C37.6359 43.0991 37.5293 43.5723 37.0719 43.924C36.6892 44.2181 36.3255 44.1712 35.9354 43.7842C35.6603 43.5113 35.3814 43.2419 35.1005 42.975C34.9731 42.8539 34.8457 42.7328 34.7182 42.6117C33.3653 41.3265 32.0123 40.0411 30.6902 38.727C30.5503 38.5878 30.4088 38.4475 30.2307 38.3501C29.8675 38.1524 29.5813 38.3073 29.5649 38.7088C29.5548 38.953 29.6507 39.1705 29.7562 39.3829C30.8917 41.6754 31.9964 43.9815 33.0661 46.3027C33.1901 46.5711 33.2134 46.8324 33.1275 47.1109C33.0083 47.4999 32.7687 47.7037 32.3669 47.7441C31.9274 47.788 31.6248 47.6376 31.4265 47.281C30.149 44.9789 28.7867 42.7222 27.4037 40.4766C27.3009 40.3097 27.1959 40.1427 27.0369 40.0175C26.8604 39.8788 26.7046 39.9141 26.6187 40.1154C26.5413 40.297 26.5212 40.4903 26.5424 40.685C26.571 40.9468 26.5994 41.2085 26.6278 41.4703C26.7209 42.3275 26.8139 43.1845 26.915 44.041C26.9528 44.3615 26.9923 44.6817 27.0318 45.002C27.1434 45.907 27.255 46.812 27.329 47.7209C27.3661 48.176 27.1652 48.4489 26.7645 48.5402C26.237 48.6603 25.9603 48.5357 25.7478 48.0776C25.7016 47.9782 25.6587 47.8753 25.6322 47.7703C25.456 47.079 25.3387 46.3777 25.2214 45.6764C25.1725 45.3838 25.1235 45.0911 25.0703 44.7993C25.013 44.4851 24.9573 44.1706 24.9016 43.8561C24.7142 42.7977 24.5267 41.7394 24.2778 40.6916C24.2217 40.4539 24.1459 40.2198 23.999 40.016C23.8252 39.7749 23.5935 39.7582 23.3794 39.9696C23.2172 40.1295 23.108 40.3213 23.0539 40.5377C22.9923 40.7836 22.9668 41.0341 22.9413 41.2847C22.9346 41.3514 22.9278 41.4181 22.9203 41.4846C22.7857 42.6869 22.651 43.8891 22.5127 45.0909C22.4761 45.4082 22.4358 45.725 22.3812 46.0399C22.3123 46.4364 22.0277 46.672 21.646 46.6695C21.2394 46.6665 20.9749 46.4364 20.9246 46.0167C20.8106 45.0652 20.7846 44.1086 20.7645 43.1521C20.7532 42.6246 20.7708 42.0971 20.7885 41.5695C20.8156 40.763 20.8427 39.9563 20.7661 39.1493C20.6998 38.451 20.5805 37.77 20.2657 37.1272C19.717 36.0082 19.2129 34.8715 18.8408 33.687Z" fill="white"/>
</svg>
