<svg width="24" height="24" viewBox="0 0 24 24" fill="none" xmlns="http://www.w3.org/2000/svg">
<path fill-rule="evenodd" clip-rule="evenodd" d="M11.8066 12.3791C12.1687 12.4057 12.5311 12.4322 12.8952 12.4267L13.3072 12.4267C14.1833 12.4256 14.99 12.2275 15.7047 11.7784C16.141 11.5044 16.4637 11.1496 16.5526 10.6801C16.7156 9.82002 16.1362 9.129 15.1305 8.95389C14.9247 8.91802 14.7164 8.89791 14.5079 8.87778C14.1615 8.84434 13.8144 8.81083 13.4768 8.70481C13.2454 8.63223 13.0115 8.56558 12.7774 8.4989C12.409 8.39394 12.0404 8.28891 11.6813 8.1606C11.6779 8.1594 11.6745 8.15821 11.6712 8.15703C11.5979 8.13108 11.5317 8.10766 11.5342 8.00586C11.5564 7.09444 11.5139 6.18453 11.4449 5.27537C11.393 4.59077 11.3401 3.9064 11.2871 3.22189C11.2732 3.0419 11.2593 2.8619 11.2454 2.68188C11.2346 2.54225 11.2226 2.40261 11.2107 2.26296C11.1826 1.93306 11.1545 1.60305 11.1404 1.27267C11.1248 0.912628 11.4306 0.646939 11.8504 0.619011C12.301 0.589196 12.5322 0.742798 12.6098 1.11982C12.7796 1.94424 12.9692 2.7654 13.1588 3.58658C13.3825 4.55515 13.6062 5.52375 13.7973 6.49777C13.8216 6.62231 13.8714 6.74082 13.9551 6.84573C14.0909 7.01519 14.2765 7.03028 14.4491 6.88649C14.6031 6.75855 14.6669 6.59023 14.6989 6.41588C14.7616 6.07308 14.8217 5.72992 14.8819 5.38677C14.9589 4.94791 15.0359 4.50909 15.1179 4.07109C15.2222 3.51386 15.3298 2.957 15.4373 2.40015C15.5449 1.8433 15.6524 1.28644 15.7567 0.729212C15.8079 0.456352 15.9606 0.254066 16.2221 0.101973C16.4775 -0.0467222 16.7226 -0.0225686 16.9707 0.108389C17.2075 0.233686 17.3705 0.398233 17.3493 0.656751C17.3402 0.769703 17.3271 0.882458 17.314 0.995159C17.3089 1.03873 17.3038 1.0823 17.299 1.12586C17.1227 2.73034 17.0022 4.33855 16.8816 5.94682C16.8692 6.1116 16.8569 6.27638 16.8445 6.44116C16.8435 6.45452 16.8424 6.4679 16.8414 6.4813C16.8298 6.63058 16.8181 6.7817 16.8536 6.93027C16.9112 7.17181 17.0643 7.21445 17.2786 7.04878C17.4039 6.95141 17.4946 6.83026 17.5748 6.7027C18.0171 5.99857 18.4356 5.28366 18.8542 4.56869C19.0907 4.16468 19.3273 3.76066 19.5681 3.35856C19.6066 3.29433 19.6451 3.23009 19.6836 3.16585C19.9019 2.80127 20.1203 2.4368 20.347 2.07615C20.5058 1.8233 20.7352 1.69989 20.9742 1.76027C21.4668 1.88443 21.7158 1.99652 21.5779 2.55432C21.499 2.87327 21.3406 3.16736 21.1826 3.46075C21.1355 3.54818 21.0885 3.63556 21.0435 3.7235C20.8749 4.05348 20.7045 4.38277 20.534 4.71206C20.0735 5.60152 19.6131 6.49106 19.1886 7.39447C19.1856 7.40081 19.1826 7.40715 19.1797 7.41349C19.068 7.65067 18.9554 7.88982 18.9457 8.15116C18.9362 8.41647 19.0949 8.51913 19.3859 8.44931C19.6392 8.38855 19.8392 8.2591 20.0044 8.08663C20.3083 7.7695 20.6116 7.45193 20.915 7.13434C21.2899 6.74175 21.6649 6.34914 22.0411 5.95733L22.0551 5.94266C22.3285 5.65808 22.602 5.3733 22.8868 5.098C23.2511 4.74626 23.8053 4.83834 23.9754 5.26783C24.0421 5.4366 23.9582 5.5717 23.8739 5.70768C23.8694 5.71491 23.8649 5.72214 23.8604 5.72939C23.1995 6.79931 22.4214 7.80395 21.6186 8.79576C21.1073 9.42753 20.6133 10.0706 20.2989 10.8009C20.1463 11.1554 20.0828 11.5265 20.0194 11.8975C19.9884 12.0789 19.9574 12.2604 19.9159 12.4399C19.6939 13.4015 19.4293 14.3518 18.9926 15.2584C18.6773 15.9124 18.2015 16.4536 17.4551 16.7838C17.2634 16.8683 17.0704 16.917 16.8518 16.8823C16.2364 16.7849 15.6154 16.7887 14.9952 16.8234C14.8434 16.8321 14.7592 16.8004 14.6725 16.6989C14.3413 16.3102 14.0075 15.9231 13.6737 15.5361C13.4398 15.2648 13.2059 14.9935 12.9728 14.7217C12.3804 14.0307 11.8313 13.317 11.4371 12.5203C11.3746 12.3939 11.3634 12.3478 11.5551 12.3611C11.6389 12.3668 11.7228 12.373 11.8066 12.3791ZM0.414655 12.8566C0.212117 12.2671 0.0100145 11.6768 -0.00082875 10.9877C0.0015974 10.9663 0.00360393 10.9405 0.00585842 10.9115C0.0124731 10.8263 0.0212336 10.7136 0.0490465 10.6035C0.183927 10.0212 0.346999 9.45169 1.10727 9.23355C1.12597 9.22831 1.14361 9.21978 1.16123 9.21126C1.16895 9.20753 1.17667 9.20379 1.18447 9.20034C2.06488 8.81011 2.80651 8.26439 3.47571 7.63979C3.67521 7.45373 3.91114 7.32844 4.19652 7.28277C4.82799 7.18201 5.47029 7.15559 6.08702 7.30693C7.43886 7.63866 8.70743 8.15872 9.95085 8.71727C11.4328 9.383 12.9555 9.92646 14.6339 10.0695C14.6441 10.0704 14.6543 10.0712 14.6645 10.072C14.7118 10.0758 14.7593 10.0797 14.8057 10.0884L14.8081 10.0888C14.9787 10.1208 15.1547 10.1537 15.2186 10.3216C15.2823 10.4895 15.1743 10.6137 15.049 10.7228C14.7532 10.9802 14.3785 11.1111 13.9812 11.19C13.5421 11.277 13.0967 11.2617 12.6517 11.2465C12.5698 11.2437 12.4879 11.2409 12.406 11.2387C12.188 11.2329 11.971 11.2149 11.754 11.1969C11.4609 11.1726 11.1678 11.1483 10.8725 11.1541C10.2627 11.1658 9.92526 11.3844 9.8563 11.8138C9.83115 11.972 9.86497 12.1282 9.91355 12.2788C10.1569 13.0291 10.5589 13.7178 11.0503 14.3628C11.9821 15.5864 13.0131 16.7468 14.044 17.9072C14.2055 18.0889 14.367 18.2707 14.5281 18.4527C14.6372 18.5759 14.7473 18.6984 14.8575 18.8209C15.0856 19.0746 15.3137 19.3283 15.5321 19.5879C15.7923 19.8974 15.7052 20.2514 15.3309 20.5144C15.0178 20.7344 14.7202 20.6993 14.401 20.4099C14.1759 20.2057 13.9478 20.0042 13.718 19.8045C13.6138 19.714 13.5095 19.6235 13.4053 19.5329C12.2984 18.5715 11.1913 17.6099 10.1096 16.6268C9.99508 16.5227 9.87929 16.4177 9.73356 16.3449C9.43648 16.197 9.20228 16.3128 9.18884 16.6132C9.18059 16.7959 9.2591 16.9586 9.3454 17.1174C10.2744 18.8324 11.1782 20.5574 12.0534 22.2939C12.1549 22.4946 12.174 22.6901 12.1037 22.8985C12.0061 23.1894 11.8101 23.3419 11.4814 23.3721C11.1218 23.4049 10.8742 23.2925 10.712 23.0256C9.66677 21.3036 8.55216 19.6155 7.42064 17.9356C7.3365 17.8107 7.25063 17.6858 7.12052 17.5922C6.9761 17.4884 6.84859 17.5148 6.77833 17.6654C6.71501 17.8013 6.69853 17.9458 6.71588 18.0915C6.73932 18.2873 6.76256 18.4832 6.78581 18.679C6.86193 19.3202 6.93804 19.9613 7.02077 20.602C7.05172 20.8417 7.08403 21.0813 7.11635 21.3209C7.20765 21.9979 7.29895 22.6749 7.35949 23.3547C7.38985 23.6952 7.22548 23.8993 6.8976 23.9676C6.46607 24.0575 6.23968 23.9642 6.06576 23.6216C6.02803 23.5472 5.9929 23.4702 5.97122 23.3917C5.82708 22.8746 5.7311 22.3499 5.63513 21.8253C5.59508 21.6064 5.55503 21.3875 5.51149 21.1692C5.46461 20.9342 5.41904 20.6989 5.37347 20.4637C5.2201 19.6719 5.06674 18.8803 4.86311 18.0964C4.81714 17.9187 4.75512 17.7436 4.63499 17.5911C4.49273 17.4107 4.30321 17.3982 4.12799 17.5564C3.99528 17.676 3.90594 17.8194 3.8617 17.9813C3.81134 18.1652 3.79048 18.3527 3.76962 18.5402C3.76407 18.59 3.75851 18.6399 3.75241 18.6897L3.75223 18.6912C3.64213 19.59 3.53203 20.4889 3.41889 21.3873C3.38897 21.6247 3.35601 21.8617 3.31134 22.0972C3.25496 22.3939 3.02206 22.5701 2.70979 22.5682C2.37715 22.566 2.16073 22.3939 2.11953 22.0799C2.02628 21.3681 2.00503 20.6525 1.98855 19.937C1.97929 19.5424 1.99377 19.1478 2.00825 18.7532C2.03038 18.1498 2.05252 17.5464 1.98985 16.9427C1.93564 16.4204 1.83806 15.9109 1.58044 15.4301C1.13156 14.593 0.719111 13.7427 0.414655 12.8566Z" fill="#4B4B4B"/>
</svg>
