<svg width="20" height="24" viewBox="0 0 20 24" fill="none" xmlns="http://www.w3.org/2000/svg">
<path d="M19.1758 0.703125C19.1758 0.314812 18.861 0 18.4727 0H2.93945C1.77311 0 0.824219 0.948891 0.824219 2.11523V21.8848C0.824219 23.0511 1.77311 24 2.93945 24H18.4727C18.861 24 19.1758 23.6852 19.1758 23.2969V0.703125ZM17.7695 19.7695H5.05469V1.40625H17.7695V19.7695ZM2.93945 1.40625H3.64844V19.7695H2.93945C2.69083 19.7695 2.45223 19.813 2.23047 19.8922V2.11523C2.23047 1.7243 2.54852 1.40625 2.93945 1.40625ZM17.7695 22.5938H2.93945C2.54852 22.5938 2.23047 22.2757 2.23047 21.8848C2.23047 21.4938 2.54852 21.1758 2.93945 21.1758H17.7695V22.5938Z" fill="#4B4B4B"/>
</svg>
